<svg xmlns="http://www.w3.org/2000/svg" viewBox="0 0 64 64" role="img" aria-label="야자수 스티커">
  <path d="M32 20c-1.5 12-2 22-6 34" fill="none" stroke="#8a6a45"
        stroke-width="4" stroke-linecap="round"/>
  <path d="M32 19c-7-6-15-6-20 0 6-1.5 11-.5 15 3z" fill="#7fa383"
        stroke="#4f6b53" stroke-width="2.2" stroke-linejoin="round"/>
  <path d="M32 19c7-6 15-6 20 0-6-1.5-11-.5-15 3z" fill="#7fa383"
        stroke="#4f6b53" stroke-width="2.2" stroke-linejoin="round"/>
  <path d="M32 19c-2-8-8-13-15-13 5 3 8 7 9 12z" fill="#9ab99c"
        stroke="#4f6b53" stroke-width="2.2" stroke-linejoin="round"/>
  <path d="M32 19c2-8 8-13 15-13-5 3-8 7-9 12z" fill="#9ab99c"
        stroke="#4f6b53" stroke-width="2.2" stroke-linejoin="round"/>
  <path d="M18 54h28" fill="none" stroke="#d9c49a" stroke-width="4" stroke-linecap="round"/>
</svg>
